<?xml version="1.0" encoding="UTF-8"?>
<svg id="Layer_1" data-name="Layer 1" xmlns="http://www.w3.org/2000/svg" xmlns:xlink="http://www.w3.org/1999/xlink" viewBox="0 0 650.96 567.07">
  <defs>
    <style>
      .cls-1 {
        stroke: #231f20;
      }

      .cls-1, .cls-2 {
        stroke-miterlimit: 10;
      }

      .cls-1, .cls-3 {
        fill: #fff;
      }

      .cls-4 {
        fill: url(#White_Black_2);
      }

      .cls-5 {
        fill: #676767;
      }

      .cls-6 {
        fill: #151414;
      }

      .cls-7 {
        fill: #383735;
      }

      .cls-8 {
        fill: url(#White_Black_2-2);
      }

      .cls-9 {
        fill: #181919;
      }

      .cls-10 {
        stroke: #676767;
        stroke-width: 1.8px;
      }

      .cls-10, .cls-11 {
        fill: none;
      }

      .cls-2 {
        fill: #ef3d30;
        stroke: #ef3e31;
      }

      .cls-12 {
        fill: #d1d3d4;
      }

      .cls-13 {
        fill: #e6e7e8;
      }

      .cls-14 {
        fill: #3d3a36;
      }

      .cls-15 {
        fill: #231f20;
      }

      .cls-16, .cls-3 {
        isolation: isolate;
        opacity: .84;
      }
    </style>
    <linearGradient id="White_Black_2" data-name="White, Black 2" x1="-478.12" y1="1329.13" x2="-445.98" y2="1329.13" gradientTransform="translate(-665.45 529.05) rotate(-125.74) scale(.84) skewX(1.97)" gradientUnits="userSpaceOnUse">
      <stop offset="0" stop-color="#231f20"/>
      <stop offset="1" stop-color="#fff"/>
    </linearGradient>
    <linearGradient id="White_Black_2-2" data-name="White, Black 2" x1="-515.39" y1="1378.59" x2="-483.25" y2="1378.59" gradientTransform="translate(1372.44 529.05) rotate(-54.26) scale(.84 -.84) skewX(1.97)" xlink:href="#White_Black_2"/>
  </defs>
  <path class="cls-2" d="M327.52,6.91s-6.38,17.91-6.38,24.5c-6.25,0-26.34,55.66-30,70.25,2.61-4.17,9.25-5.75,9.25-5.75-4.7,10.43-28.5,40.81-28.5,40.81,11.5-5.56,18.29-4.87,12.54,.69-9.4,9.38-81.36,.04-50.81-99.3C245.38-.11,208.23-10.28,189.25,12.59,158.8,49.28,35.98,205.18,1.5,229.51c27.69,1.56,156.89-115.29,156.89-115.29,1.57,28.15-140.44,170.19-156.89,184.78,29.78-3.13,145.92-98.26,145.92-98.26-9.4,32.32-87.05,133-121.92,170,37.61-11.46,137.99-123.09,137.99-123.09-10.58,44.83-52.59,151.09-52.59,151.09,18.03,7.3,89.03-159.43,89.03-159.43,1.57,21.89-15.15,66.72-25.6,84.44,37.61-23.33,66.35-100.08,66.35-100.08,0,0,2.87,29.19-16.2,64.63,15.67,2.08,39.31-39.09,44.02-77.14,7.97,20.85,10.82,46.64,.65,56.64-26.12,25.71-26.43,85.67-36.9,82.71q-6.01-.35-17.7,7.29c-5.03,1.65-24.23-.57-25.2,4.13-.98,4.69,0,13.16,0,13.16-4.51,2.35-4.51,21.37,3.33,23.46-1.76-4.95-1.76-13.03-.2-17.46,4.7,4.69,9.4,2.35,10.58-.52-1.57-4.95,5.43-23.58,16.26-.52,2.29,4.86,2.16,12.33-5.16,19.11-3.87,3.58,1.7,11.12,1.7,11.12,1.31,4.17-8.1,10.42-10.71,8.68,9.4,6.95,14.63-4.17,14.63-4.17,5.22,0,12.28-3.47,12.8-10.08-2.35-8.34-4.54-23.89,1.04-37.18,9.93-23.63,42.84-34.4,52.25-58.38,2.61,26.06-53.03,121.27-59.3,155.68,13.06-12.51,53.55-62.55,53.55-62.55,3.14,25.37-15.86,71.34-16.98,93.82,14.01-10,35.66-60.11,50.15-67.41,0,0,8.16,106.68,13.39,115.02,11.49-29.19,17.96-112.24,17.96-112.24,0,0,31.87,45.17,47.68,58.89-1.12-22.48-22.2-56.64-19.07-82,0,0,40.49,50.04,53.55,62.55-6.27-34.4-62.18-135.68-59.57-161.74,9.4,23.98,42.59,34.82,52.52,58.45,5.58,13.3,3.4,28.85,1.04,37.19,.52,6.6,7.58,10.08,12.8,10.08,0,0,5.22,11.12,14.63,4.17-2.61,1.74-12.02-4.52-10.71-8.69,0,0,5.56-7.54,1.7-11.12-7.31-6.78-7.45-14.25-5.16-19.12,10.83-23.05,17.83-4.43,16.26,.52,1.18,2.87,5.88,5.21,10.58,.52,1.57,4.43,1.57,12.51-.2,17.46,7.84-2.08,7.84-21.11,3.33-23.45,0,0,.98-8.47,0-13.16-.98-4.69-20.18-2.47-25.21-4.12q-11.69-7.64-17.7-7.29c-10.47,2.96-10.78-51-36.9-76.72-10.17-10.01-7.31-35.79,.65-56.64,4.7,38.05,28.34,79.23,44.01,77.15-19.07-35.45-16.19-64.64-16.19-64.64,0,0,28.73,76.75,66.35,100.08-10.45-17.72-27.17-62.55-25.6-84.44,0,0,70.76,160.66,88.78,153.37,0,0-41.77-100.2-52.35-145.03,0,0,99.01,105.56,136.62,117.03-34.87-37.01-111.15-131.62-120.56-163.94,0,0,113.74,89.06,143.52,92.19-16.46-14.59-156.06-150.57-154.49-178.72,0,0,126.8,109.55,154.49,107.99-34.48-24.32-153.18-178.9-183.64-215.6-18.98-22.87-56.19-12.7-44.43,25.52,30.55,99.34-42.28,108.69-51.68,99.31-5.75-5.56,1.05-6.26,12.54-.69,0,0-24.66-30.47-29.36-40.89,0,0,7.89,1.58,10.5,5.75-3.66-14.59-25.13-70.25-30.5-70.25-.25-6.59-5.37-24.5-5.37-24.5Z"/>
  <g>
    <polygon class="cls-13" points="523.24 563.13 511.75 543.23 518.75 539.22 501.88 509.77 507.79 504.02 504.87 498.77 484.13 510.65 516.36 567.07 523.24 563.13"/>
    <polygon class="cls-13" points="529.99 559.27 520.1 541.87 516.67 543.84 526.67 561.17 529.99 559.27"/>
    <polygon class="cls-13" points="536.98 555.26 527.1 537.86 523.66 539.83 533.67 557.16 536.98 555.26"/>
    <polygon class="cls-13" points="543.98 551.25 534.09 533.86 530.66 535.82 540.66 553.15 543.98 551.25"/>
    <polygon class="cls-13" points="550.85 547.32 540.96 529.92 537.53 531.89 547.53 549.22 550.85 547.32"/>
    <polygon class="cls-13" points="546.58 523.36 531.19 496.49 523.23 498.68 509.32 474.38 498.88 480.36 512.8 504.65 506.79 510.38 522.18 537.25 546.58 523.36"/>
    <polygon class="cls-13" points="557.82 543.41 547.93 526.01 544.5 527.98 554.5 545.31 557.82 543.41"/>
    <polygon class="cls-13" points="564.84 539.31 554.95 521.91 551.52 523.87 561.5 541.3 564.84 539.31"/>
    <polygon class="cls-13" points="575.27 533.33 542.94 476.88 522.07 488.83 525.1 494.11 533.08 491.82 549.92 521.37 557.04 517.29 568.49 537.29 575.27 533.33"/>
    <path class="cls-13" d="M503.15,496.33l-11.46-20,17.43-9.98,11.46,20,26.02-14.9-3.05-7.46-18.83-21.49-21.97,12.58-3.02-5.28,20.98-12.02-5.38-6.13-19.51,11.18-3.02-5.28,18.5-10.52-5.38-6.13-17.06,9.77-3.02-5.28,16.05-9.11-5.38-6.13-14.6,8.36-2.95-5.15,13.53-7.83-5.38-6.13-12.15,6.96c-14.38-25.64-54.71-40.64-146.92-40.31v20.67c80.54-1,112.54,8.67,129.47,29.31l-12.15,6.96,2.56,7.74,13.62-7.8,3.02,5.28-14.6,8.36,2.56,7.74,15.95-9.14,3.02,5.28-17.06,9.77,2.56,7.74,18.5-10.52,2.93,5.25-19.51,11.18,2.56,7.74,20.96-11.92,3.05,5.18-21.97,12.58,9.01,27.11,4.87,6.5,25.77-14.76Z"/>
    <polygon class="cls-13" points="139.68 567.07 171.91 510.65 151.17 498.77 148.25 504.02 154.16 509.77 137.29 539.22 144.29 543.23 132.8 563.13 139.68 567.07"/>
    <polygon class="cls-13" points="129.37 561.17 139.38 543.84 135.94 541.87 126.05 559.27 129.37 561.17"/>
    <polygon class="cls-13" points="122.37 557.16 132.38 539.83 128.94 537.86 119.06 555.26 122.37 557.16"/>
    <polygon class="cls-13" points="115.38 553.15 125.39 535.82 121.95 533.86 112.07 551.25 115.38 553.15"/>
    <polygon class="cls-13" points="108.51 549.22 118.51 531.89 115.08 529.92 105.19 547.32 108.51 549.22"/>
    <polygon class="cls-13" points="133.86 537.25 149.25 510.38 143.24 504.65 157.16 480.36 146.73 474.38 132.81 498.68 124.86 496.49 109.46 523.36 133.86 537.25"/>
    <polygon class="cls-13" points="101.54 545.31 111.54 527.98 108.11 526.01 98.22 543.41 101.54 545.31"/>
    <polygon class="cls-13" points="94.54 541.3 104.52 523.87 101.09 521.91 91.2 539.31 94.54 541.3"/>
    <polygon class="cls-13" points="87.55 537.29 99.01 517.29 106.12 521.37 122.97 491.82 130.94 494.11 133.97 488.83 113.11 476.88 80.77 533.33 87.55 537.29"/>
    <path class="cls-13" d="M178.67,511.09l4.87-6.5,9.01-27.11-21.97-12.58,3.05-5.18,20.96,11.92,2.56-7.74-19.51-11.18,2.93-5.25,18.5,10.52,2.56-7.74-17.06-9.77,3.02-5.28,15.95,9.14,2.56-7.74-14.6-8.36,3.02-5.28,13.62,7.8,2.56-7.74-12.15-6.96c16.93-20.64,48.93-30.31,129.47-29.31v-20.67c-92.2-.33-132.54,14.67-146.92,40.31l-12.15-6.96-5.38,6.13,13.53,7.83-2.95,5.15-14.6-8.36-5.38,6.13,16.05,9.11-3.02,5.28-17.06-9.77-5.38,6.13,18.5,10.52-3.02,5.28-19.51-11.18-5.38,6.13,20.98,12.02-3.02,5.28-21.97-12.58-18.83,21.49-3.05,7.46,26.02,14.9,11.46-20,17.43,9.98-11.46,20,25.77,14.76Z"/>
  </g>
  <g>
    <g>
      <path class="cls-14" d="M446.78,144.29c9.76,11.29,12.05,11.35,14.17,23.59"/>
      <path class="cls-7" d="M98.7,413.42c-6.49-.16-11.45-.72-11.02-1.25s29.08-20.74,63.66-44.92c96.55-67.5,185.5-133.53,254.06-188.62,22.39-17.99,40.82-32.84,40.95-33s2.99,4.27,6.34,9.85c5.38,8.96,5.9,10.46,4.42,12.8-2.19,3.46-28.73,23.44-99.79,75.13-55.55,40.41-174.02,125.68-215.55,155.15-22.32,15.83-21.12,15.42-43.08,14.88h0Z"/>
      <path class="cls-9" d="M121.24,413.65l-.4,.15c-.24-.55-.47-1.1-.71-1.66-.31-.76-.71-1.48-1.15-2.18-.45-.64-.87-1.31-1.23-2.01-.33-.63-.62-1.28-.96-1.91-.26-.48-.48-.97-.54-1.52-.03-.44,.23-.69,.54-.96,.46-.37,.94-.72,1.39-1.1,.69-.55,1.34-1.15,2-1.73,.68-.61,1.38-1.19,2.13-1.69,.71-.44,1.44-.84,2.21-1.15,.87-.41,1.8-.63,2.73-.83,.82-.18,1.64-.32,2.48-.41,.78-.09,1.55-.17,2.33-.24,.73-.03,1.47-.11,2.19-.2,.89-.14,1.74-.43,2.6-.69,.67-.21,1.4-.44,2.01-.67,.78-.29,1.53-.66,2.24-1.09,.75-.45,1.44-.98,2.12-1.54,.75-.63,1.46-1.32,2.16-2.01,.73-.68,1.45-1.35,2.17-2.05,.72-.67,1.45-1.33,2.21-1.96,.77-.6,1.51-1.25,2.26-1.87,.67-.58,1.4-1.08,2.13-1.57,.76-.51,1.56-.97,2.33-1.47,.99-.64,1.97-1.29,2.97-1.91,.97-.6,1.93-1.2,2.92-1.77,.96-.56,1.93-1.09,2.92-1.6,1.06-.56,2.14-1.06,3.21-1.59,1.09-.55,2.14-1.18,3.16-1.84,1.23-.84,2.41-1.75,3.56-2.7,1.19-1,2.34-2.04,3.47-3.11,1.12-1.08,2.2-2.2,3.28-3.33,1.02-1.09,2.04-2.19,3.13-3.23,1.13-1.08,2.32-2.09,3.55-3.06,1.16-.92,2.37-1.77,3.59-2.59,1.03-.71,2.09-1.35,3.18-1.96,1.19-.64,2.4-1.22,3.63-1.8,1.35-.62,2.69-1.24,4.04-1.87,1.56-.74,3.11-1.52,4.65-2.3,1.3-.65,2.56-1.37,3.8-2.14,1.1-.67,2.13-1.43,3.1-2.26,1.01-.9,1.96-1.86,2.89-2.83,.95-.99,1.88-2,2.8-3.03,.93-1.03,1.84-2.08,2.75-3.13,.94-1.08,1.94-2.11,2.94-3.14,.92-.88,1.89-1.71,2.89-2.5,.97-.73,2.02-1.36,3.07-1.97,1.22-.72,2.46-1.41,3.72-2.05,1.15-.59,2.3-1.2,3.48-1.73,.98-.42,1.95-.85,2.95-1.23,.88-.33,1.76-.64,2.62-1,1.01-.37,1.97-.84,2.93-1.33,1.03-.53,2.05-1.09,3.03-1.71,.91-.58,1.78-1.23,2.63-1.9,.96-.75,1.83-1.61,2.68-2.48,1.16-1.22,2.29-2.48,3.46-3.7,.98-.96,1.95-1.92,2.95-2.86,.86-.79,1.72-1.59,2.59-2.37,.92-.79,1.83-1.58,2.76-2.34,1.04-.87,2.07-1.75,3.13-2.6,1.03-.84,2.04-1.71,3.05-2.57,.97-.84,1.95-1.65,2.94-2.47,1.17-.97,2.38-1.87,3.57-2.82,1.17-.94,2.36-1.86,3.57-2.75,1.03-.8,2.13-1.49,3.28-2.11,1.48-.73,3.05-1.26,4.59-1.84,1.22-.47,2.49-.84,3.69-1.37,1.31-.55,2.58-1.2,3.88-1.79,1.07-.46,2.1-.99,3.11-1.57,.93-.48,1.81-1.03,2.65-1.64,1.03-.75,1.96-1.62,2.88-2.51,.98-.95,1.94-1.93,2.88-2.91,.82-.85,1.62-1.72,2.42-2.58,.96-1.05,1.89-2.14,2.82-3.22,1.12-1.32,2.24-2.65,3.35-3.97,1.03-1.23,2.06-2.47,3.09-3.7,.88-1.1,1.82-2.16,2.8-3.18,.82-.87,1.67-1.71,2.53-2.54,.75-.71,1.57-1.34,2.39-1.96,.92-.66,1.88-1.25,2.88-1.79,1.08-.58,2.16-1.18,3.26-1.71,1.21-.57,2.46-1.07,3.7-1.56,1.22-.49,2.46-.92,3.72-1.32,1.02-.32,2.03-.65,3.06-.96,1.02-.31,2.04-.58,3.06-.89,.95-.29,1.9-.61,2.84-.95,.73-.25,1.43-.59,2.12-.95,.83-.47,1.61-1.01,2.38-1.57,.85-.61,1.64-1.28,2.41-1.98,.83-.76,1.62-1.55,2.41-2.35,.75-.77,1.48-1.55,2.21-2.34,.73-.79,1.44-1.6,2.15-2.41,.79-.9,1.55-1.83,2.35-2.72,.74-.8,1.49-1.61,2.22-2.41,.68-.76,1.4-1.47,2.11-2.19,.68-.72,1.38-1.43,2.11-2.11,.68-.59,1.34-1.22,2.02-1.82,.61-.52,1.24-1.01,1.92-1.44,.71-.49,1.5-.81,2.29-1.14,.93-.41,1.88-.78,2.83-1.14,.98-.42,2.01-.71,3.01-1.06,.83-.28,1.65-.58,2.48-.87,.61-.21,1.23-.5,1.85-.79,.8-.42,1.57-.9,2.32-1.41,.84-.56,1.66-1.16,2.45-1.79,.8-.64,1.55-1.33,2.3-2.03,.73-.69,1.44-1.42,2.14-2.15,.68-.71,1.34-1.43,2-2.16,.62-.69,1.24-1.39,1.85-2.09,.72-.84,1.44-1.7,2.19-2.52,.71-.74,1.49-1.41,2.28-2.05,.68-.6,1.42-1.11,2.16-1.63,.67-.45,1.37-.86,2.07-1.24,.63-.36,1.3-.64,1.96-.94,.75-.34,1.51-.66,2.26-1.01,.54-.24,.27-.12,.81-.35l.42-.09c-.54,.24-.27,.12-.81,.35-.75,.35-1.5,.67-2.25,1.01-.66,.3-1.33,.57-1.96,.94-.71,.38-1.4,.79-2.07,1.24-.74,.52-1.49,1.03-2.17,1.62-.79,.64-1.58,1.31-2.28,2.04-.75,.82-1.47,1.67-2.19,2.51-.61,.7-1.23,1.4-1.85,2.1-.66,.73-1.32,1.45-2,2.16-.7,.73-1.41,1.45-2.14,2.15-.74,.7-1.5,1.39-2.29,2.03-.79,.63-1.61,1.23-2.45,1.79-.75,.51-1.51,1-2.31,1.41-.86,.41-1.74,.78-2.64,1.09-.83,.29-1.65,.59-2.48,.87-.74,.25-1.5,.47-2.23,.76-.95,.36-1.89,.74-2.83,1.14-.79,.33-1.58,.64-2.29,1.13-.68,.43-1.31,.92-1.92,1.44-.68,.59-1.33,1.22-2.02,1.82-.73,.67-1.43,1.38-2.12,2.11-.71,.73-1.43,1.44-2.11,2.19-.74,.81-1.48,1.61-2.22,2.41-.8,.89-1.56,1.82-2.35,2.72-.71,.81-1.42,1.62-2.15,2.41-.73,.79-1.46,1.58-2.21,2.35-.79,.8-1.58,1.59-2.41,2.36-.77,.7-1.56,1.38-2.41,1.98-.77,.55-1.56,1.1-2.38,1.57-.93,.49-1.9,.91-2.9,1.25-.94,.35-1.88,.66-2.84,.95-1.02,.31-2.04,.58-3.06,.89-1.02,.31-2.03,.65-3.06,.96-.99,.31-1.97,.64-2.93,1.02-1.24,.5-2.49,.99-3.7,1.56-1.11,.53-2.18,1.13-3.26,1.71-.99,.54-1.96,1.13-2.88,1.78-.82,.62-1.64,1.25-2.39,1.95-.86,.83-1.71,1.67-2.53,2.54-.98,1.02-1.91,2.07-2.8,3.17-1.03,1.24-2.05,2.47-3.09,3.7-1.11,1.33-2.23,2.65-3.35,3.97-.93,1.09-1.85,2.17-2.82,3.23-.8,.87-1.6,1.73-2.42,2.59-.95,.98-1.9,1.96-2.88,2.91-.92,.88-1.85,1.76-2.88,2.51-.85,.61-1.72,1.17-2.65,1.64-1.01,.58-2.04,1.11-3.11,1.58-1.3,.59-2.57,1.24-3.88,1.8-1.48,.59-2.97,1.14-4.47,1.67-1.28,.48-2.58,.92-3.81,1.54-1.15,.61-2.25,1.3-3.28,2.1-1.21,.89-2.4,1.81-3.57,2.75-1.18,.95-2.4,1.85-3.57,2.82-.98,.82-1.97,1.63-2.94,2.47-1.02,.86-2.02,1.73-3.05,2.57-1.05,.85-2.08,1.73-3.13,2.6-.94,.76-1.85,1.56-2.76,2.34-.87,.78-1.72,1.58-2.59,2.37-1,.93-1.98,1.9-2.95,2.86-1.17,1.22-2.3,2.47-3.46,3.7-.85,.87-1.72,1.74-2.68,2.49-.85,.67-1.72,1.32-2.63,1.91-.98,.62-2,1.18-3.03,1.71-.95,.49-1.92,.96-2.93,1.33-.86,.36-1.74,.68-2.62,1-.99,.38-1.97,.81-2.95,1.23-1.18,.53-2.33,1.13-3.48,1.73-1.26,.65-2.5,1.33-3.72,2.05-1.05,.61-2.1,1.24-3.07,1.97-1,.78-1.97,1.61-2.89,2.49-1,1.02-2,2.06-2.94,3.14-.91,1.05-1.82,2.1-2.75,3.13-.92,1.02-1.85,2.04-2.8,3.03-.94,.97-1.88,1.93-2.89,2.83-.97,.84-2,1.6-3.1,2.27-1.24,.77-2.5,1.49-3.8,2.14-1.54,.79-3.08,1.57-4.65,2.31-1.34,.63-2.69,1.26-4.04,1.87-1.22,.57-2.44,1.15-3.63,1.79-1.09,.6-2.16,1.25-3.18,1.96-1.23,.82-2.44,1.67-3.6,2.59-1.23,.97-2.42,1.98-3.55,3.06-1.09,1.03-2.1,2.13-3.13,3.23-1.08,1.13-2.16,2.25-3.28,3.33-1.12,1.07-2.28,2.11-3.46,3.11-1.15,.95-2.33,1.86-3.56,2.71-1.02,.67-2.07,1.3-3.16,1.85-1.07,.53-2.15,1.03-3.21,1.59-.99,.51-1.96,1.04-2.92,1.6-.99,.57-1.95,1.18-2.92,1.77-1,.62-1.98,1.27-2.97,1.91-.77,.5-1.57,.96-2.33,1.47-.73,.49-1.46,.99-2.13,1.57-.76,.62-1.49,1.27-2.26,1.87-.76,.62-1.49,1.28-2.21,1.95-.71,.69-1.44,1.37-2.17,2.05-.7,.69-1.41,1.38-2.16,2.01-.68,.55-1.37,1.09-2.12,1.54-.71,.43-1.46,.81-2.24,1.09-.92,.36-1.85,.69-2.79,.97-.86,.26-1.71,.55-2.6,.68-.73,.09-1.46,.17-2.19,.2-.78,.07-1.55,.15-2.33,.24-.83,.09-1.66,.24-2.47,.41-.68,.15-1.38,.29-1.95,.54-.77,.31-1.5,.71-2.21,1.14-.76,.5-1.46,1.08-2.13,1.69-.66,.58-1.31,1.19-2,1.73-.45,.38-.92,.73-1.39,1.1-.3,.25-.58,.49-.55,.92,.05,.54,.28,1.03,.54,1.5,.34,.63,.63,1.28,.96,1.91,.36,.7,.78,1.36,1.23,2.01,.43,.7,.83,1.42,1.15,2.18l.71,1.66h0Z"/>
      <path class="cls-9" d="M414.94,192.31l-.21,.04c.31-.15,.62-.3,.94-.45,.42-.2,.84-.4,1.26-.58,.44-.19,.9-.33,1.37-.44,.43-.1,.86-.2,1.3-.29,.44-.1,.88-.18,1.32-.28,.46-.09,.9-.23,1.33-.39,.35-.15,.71-.29,1.06-.46,.41-.21,.8-.47,1.19-.72,.39-.26,.78-.52,1.15-.8,.38-.28,.75-.57,1.12-.87,.36-.29,.7-.6,1.03-.92,.35-.33,.69-.68,1.02-1.03,.33-.35,.65-.7,.97-1.06,.31-.36,.58-.76,.83-1.16,.25-.42,.51-.82,.79-1.22,1.31-1.72,2.67-3.4,4.02-5.09,1.38-1.76,2.81-3.48,4.32-5.14,.98-1.05,2-2.06,3.07-3.02,.76-.64,1.56-1.22,2.38-1.78,.61-.41,1.26-.75,1.93-1.06,.63-.31,1.29-.56,1.94-.81,.54-.2,1.09-.37,1.63-.56,.47-.16,.94-.29,1.41-.45,.42-.13,.85-.26,1.27-.4,.34-.08,.65-.22,.96-.37,.37-.18,.71-.41,1.04-.65,.22-.16,.43-.34,.64-.51l.21-.05c-.21,.18-.42,.35-.64,.51-.33,.24-.67,.47-1.04,.65-.43,.21-.89,.39-1.35,.52-.42,.13-.85,.26-1.27,.4-.47,.15-.94,.29-1.41,.45-.54,.19-1.09,.36-1.63,.56-.53,.2-1.04,.42-1.55,.66-.66,.31-1.32,.65-1.93,1.06-.82,.55-1.62,1.14-2.38,1.77-1.07,.95-2.1,1.96-3.07,3.02-1.51,1.66-2.94,3.38-4.32,5.14-1.35,1.69-2.7,3.37-4.02,5.09-.28,.4-.54,.8-.79,1.22-.25,.41-.52,.8-.83,1.17-.32,.36-.64,.71-.97,1.06-.33,.35-.67,.7-1.02,1.04-.34,.32-.68,.63-1.03,.92-.37,.3-.74,.58-1.12,.87-.38,.28-.77,.54-1.15,.8-.39,.25-.78,.51-1.19,.72-.47,.22-.96,.42-1.45,.61-.44,.16-.88,.3-1.34,.39-.44,.1-.88,.18-1.32,.28-.43,.09-.86,.19-1.3,.29-.34,.08-.67,.17-.98,.29-.43,.18-.85,.38-1.26,.58-.31,.15-.62,.3-.93,.45h0Z"/>
      <path class="cls-9" d="M280.42,294.97l-2.62-2.06,1.5-1.19c4.08-3.24,7.17-5.42,8.62-6.12,.87-.42,3.17-1.35,5.1-2.07,3.3-1.24,8.18-3.45,10.57-4.8,1.72-.96,3.7-2.59,6.11-5.02,3.49-3.51,4.45-4.58,10.82-12.05,3.27-3.83,6.53-7.54,7.25-8.24,4.05-3.96,9.53-6.72,19.43-9.79,6.29-1.95,8.08-2.71,10.42-4.43,2.92-2.15,4.93-4.16,11.34-11.36,5.13-5.76,8.59-9.09,11.05-10.65,1-.63,3.81-1.78,7.57-3.08,6.82-2.36,10.27-4.98,17.53-13.28,4-4.57,6.55-6.53,11.37-8.72,1.66-.76,3.87-1.61,4.91-1.9,1.97-.55,3.45-1.38,5.59-3.13,1.48-1.21,1.79-1.58,7.66-9.05,7.67-9.76,10.02-11.71,16.83-13.93,1.57-.51,3.27-1.2,3.79-1.52,1.08-.69,1.18-.62,1.94,1.44,.81,2.2,.51,3.72-1.04,5.21-4.33,4.15-14.07,11.68-38.74,29.98-24.68,18.31-81.18,59.45-125.54,91.43l-8.85,6.38-2.62-2.06h0Z"/>
      <path class="cls-9" d="M117.54,405.99c-.85-1.94-.88-1.89,2.59-4.72,3.8-3.09,4.77-3.49,10.43-4.28,8.52-1.19,10.16-2.04,18.66-9.65,4.33-3.88,10.65-8.08,17.73-11.8,5.07-2.66,8.47-5.14,12.67-9.27,7.21-7.07,8.46-8.2,11.61-10.49,1.82-1.33,6.02-3.72,9.32-5.31,12.03-5.79,13.95-7.12,19.94-13.78,7.96-8.85,11.38-11.31,22.02-15.86,7.61-3.25,10.56-5.16,15-9.71,1.97-2.02,4.64-4.66,5.93-5.87,2.61-2.45,13.77-11.81,14.09-11.82,.11,0,1.35,.8,2.74,1.79,2.22,1.57,2.46,1.84,1.94,2.2-.33,.22-8.79,6.33-18.81,13.57-26.12,18.88-121.39,87.14-128.88,92.34-6.4,4.44-10.14,6.77-12.58,7.83l-1.34,.58-1.17-2.03c-.64-1.12-1.51-2.79-1.92-3.72h0Z"/>
      <path class="cls-9" d="M280.44,294.91l-2.41-1.96,3.37-2.56c4.98-3.79,5.55-4.11,11.75-6.69,12.16-5.05,13.32-5.93,24.08-18.13,14.45-16.4,14.11-16.16,32.56-22.65,7.33-2.58,9.04-3.8,16.31-11.67,7.5-8.13,11.22-11.84,13.19-13.17,1-.68,4.18-2.15,7.07-3.27s6.21-2.6,7.4-3.29c2.39-1.39,6.8-5.41,12.57-11.47,4.5-4.73,6.36-5.97,13.25-8.87,2.73-1.15,5.66-2.59,6.51-3.21,.92-.67,4.54-4.71,8.96-10,8.57-10.27,8.97-10.61,15.85-13.38,2.51-1.01,4.67-1.97,4.79-2.12,.37-.46,.76,.1,1.29,1.85,.82,2.69,.4,3.62-2.9,6.47-1.56,1.35-2.87,2.68-2.9,2.94s-.2,.37-.38,.23c-.27-.22-2.37,1.35-3.87,2.89-.25,.25-.72,.61-1.05,.79-1.35,.76-3.67,2.63-3.64,2.94,.02,.18-.22,.39-.54,.47-.83,.19-3.92,2.59-3.99,3.1-.03,.24-.22,.38-.42,.31-.5-.16-17.79,12.81-17.86,13.4-.03,.26-.24,.32-.45,.15-.23-.18-.54,.02-.75,.48-.2,.44-.52,.68-.7,.53s-.5,.09-.7,.53-.52,.68-.7,.53-.5,.08-.69,.51-.5,.74-.67,.69c-.48-.14-21.42,15.33-21.5,15.89-.03,.27-.2,.37-.37,.23-.36-.3-7.71,5.1-7.79,5.72-.03,.23-.22,.37-.43,.31-.52-.16-6.26,4.04-6.34,4.64-.04,.27-.24,.35-.45,.17-.22-.18-.54,.02-.74,.47-.2,.43-.5,.74-.68,.68-.46-.14-6.22,4.08-6.29,4.61-.03,.25-.22,.4-.41,.34-.49-.14-6.29,4.1-6.36,4.66-.03,.25-.23,.31-.45,.14-.22-.18-.54,.02-.74,.47-.2,.43-.49,.74-.66,.7-.45-.12-4.83,3.07-4.9,3.57-.03,.23-.21,.38-.41,.32-.48-.14-4.88,3.02-4.95,3.55-.03,.23-.21,.38-.41,.32-.48-.14-4.88,3.02-4.95,3.55-.03,.23-.21,.38-.41,.32-.5-.15-4.88,3.03-4.95,3.6-.03,.26-.2,.35-.37,.22-.26-.21-4.06,2.5-4.85,3.46-.15,.18-.42,.33-.6,.34-.53,.01-4.85,3.36-4.91,3.8-.03,.22-.19,.29-.36,.15-.26-.21-4.06,2.5-4.85,3.46-.15,.18-.42,.33-.6,.34-.53,.01-4.85,3.36-4.91,3.8-.03,.22-.2,.28-.37,.14-.26-.21-1.88,.91-3.45,2.41-.17,.16-.58,.45-.91,.63-1.04,.58-4.47,3.02-4.61,3.29-.07,.14-.41,.4-.74,.59-1.03,.56-4.47,3.02-4.62,3.29-.07,.14-.41,.4-.74,.59-1.03,.56-4.47,3.02-4.62,3.29-.07,.14-.41,.4-.74,.59-1.03,.56-4.47,3.02-4.62,3.29-.07,.14-.41,.4-.74,.59-1.03,.56-4.47,3.02-4.62,3.29-.07,.14-.41,.4-.74,.58s-1.54,.99-2.69,1.79l-2.08,1.46-2.41-1.96h0Z"/>
      <path class="cls-5" d="M122.26,412.72c-4.73-4.65-4.98-8.76-5.58-9.42-2.16-2.37-11.93,2.17-17.54,.3-5.03,3.96-12.14,5.87-14.44,9.68-1.97,3.26-2.01,1.11-2.01,1.11"/>
      <path class="cls-6" d="M117.08,403.26l-.2,.07c-.06-.36-.13-.73-.2-1.09-.1-.51-.22-1.02-.38-1.51-.19-.53-.4-1.05-.62-1.57-.19-.47-.45-.91-.7-1.35-.23-.41-.49-.8-.74-1.2-.2-.37-.42-.71-.64-1.07-.2-.34-.42-.66-.66-.98l-.12-.16,.2-.08,.12,.16c.24,.32,.46,.64,.66,.98,.22,.36,.44,.7,.64,1.07,.25,.4,.51,.79,.74,1.2,.25,.44,.51,.88,.7,1.36,.22,.52,.43,1.04,.62,1.57,.16,.5,.28,1,.38,1.51,.07,.36,.14,.72,.2,1.09h0Z"/>
      <path class="cls-15" d="M100.27,403.28c1.09-.83,12.24-8.68,12.39-8.73,.19-.07,2.38,3.42,2.97,4.73,.22,.48,.55,1.5,.74,2.27l.35,1.39-.82-.19c-1.52-.36-2.42-.3-6.83,.43-4.03,.67-7.33,.9-8.74,.6-.54-.11-.54-.13-.06-.49Z"/>
      <path class="cls-10" d="M449.6,150.97l-8.61,10.56c-8.61,10.56-324.05,237.36-324.05,237.36"/>
      <path class="cls-4" d="M447.86,177.46l-15.83-21.99,17.08-13.21,15.83,21.99-17.08,13.21Z"/>
      <path class="cls-3" d="M463.12,145.04h0c.99,1.17,8.79,11.66,9.32,12.53,.31,.52,.4,.78,.28,.88-.2,.15,.21,.79,.54,.83,.32,.04,2.08,3.99,3.09,6.15,1.59,3.4,2.39,5.99,1.93,11.38l-.07,.81c-4.77,3.47-9.25,3-12.97,.34-1.37-.98-2.63-1.94-3.91-3.38-1.01-1.13-1.93-2.71-3.63-3.81-.17-1.89,3.1-2.24,4.69-4.48l.78-.6-.67-1.05c-.37-.58-.94-1.4-1.26-1.83-.43-.57-.72-1.19-1.08-2.31-.88-2.76-1.34-3.59-3.58-6.53-1.28-1.68-2.85-3.53-4.32-5.13-1.27-1.37-2.81-3.08-3.42-3.79s-1.18-1.28-1.27-1.27-.04,.17,.1,.36l.26,.34-1.96,1.49c-1.08,.82-5.49,4.22-9.81,7.57l-7.85,6.08,4.66-3.81c2.56-2.1,5.45-4.38,6.41-5.06s1.72-1.29,1.68-1.34,1.38-1.26,3.16-2.69l3.23-2.59-.31-.41,.35,.22-2.67,1.57c-1.03,1.13-2.79,1.7-3.37,2.2l-1.06,.9-.56-.67c-6.65-7.9-7.28-16.87-3.9-18.98,2.05-1.28,5.59-.85,9.72,1.18,5.44,2.67,11.51,7.84,17.48,14.89h0Z"/>
      <path class="cls-1" d="M565.41,52.67c4.42,2.52,6.5,4.97,7.29,8.6,.62,2.85,.04,7.49-1.13,9.06-1.56,2.09-25.4,23.33-72.12,64.28-14.22,12.46-26.08,22.83-26.36,23.04-.34,.25-2.88-2.7-7.58-8.8-3.89-5.05-8.01-10-9.16-11l-2.09-1.82,14.64-11.16c10.07-7.67,19.03-15.01,28.71-23.51,21.23-18.64,54.92-48.55,57.19-50.76,1.94-1.9,2.08-1.93,4.41-1.03,1.32,.51,4.11,1.9,6.21,3.1h0Z"/>
      <g class="cls-16">
        <ellipse class="cls-12" cx="508.17" cy="110.3" rx="58.26" ry="2.86" transform="translate(46.18 348.97) rotate(-39.57)"/>
      </g>
      <path class="cls-6" d="M474.04,137.52l1.64,8.75-7.64-4.19-1.64-8.75,7.64,4.19Z"/>
      <path class="cls-6" d="M482.31,130.5l1.64,8.75-7.64-4.19-1.64-8.75,7.64,4.19Z"/>
      <path class="cls-6" d="M490.47,124.31l1.64,8.75-7.64-4.19-1.64-8.75,7.64,4.19Z"/>
      <path class="cls-6" d="M498.26,117.64l1.64,8.75-7.64-4.19-1.64-8.75,7.64,4.19Z"/>
      <path class="cls-6" d="M506.41,111.45l1.64,8.75-7.64-4.19-1.64-8.75,7.64,4.19Z"/>
      <path class="cls-6" d="M514.56,105.26l1.64,8.75-7.64-4.19-1.64-8.75,7.64,4.19Z"/>
      <path class="cls-6" d="M522.1,97.27l1.64,8.75-7.64-4.19-1.64-8.75,7.64,4.19Z"/>
      <path class="cls-6" d="M529.53,90.13l1.64,8.75-7.64-4.19-1.64-8.75,7.64,4.19Z"/>
      <path class="cls-6" d="M538.51,81.03l1.64,8.75-7.64-4.19-1.64-8.75,7.64,4.19Z"/>
      <path class="cls-6" d="M546.78,74.01l1.64,8.75-7.64-4.19-1.64-8.75,7.64,4.19Z"/>
      <path class="cls-6" d="M553.84,66.38l1.64,8.75-7.64-4.19-1.64-8.75,7.64,4.19Z"/>
      <path class="cls-11" d="M552.69,52.34c.67,.48,1.35,.94,2.01,1.45,.86,.67,1.67,1.4,2.45,2.15,1.06,.96,2.05,1.98,3.03,3.01,1.03,1.1,2.06,2.2,3.03,3.36,.87,1.05,1.67,2.15,2.43,3.28,.68,.99,1.27,2.05,1.89,3.08,.59,.95,1.11,1.94,1.6,2.94,.29,.59,.45,1.22,.56,1.86l-.02,.6c-.1-.64-.25-1.27-.54-1.86-.48-1.01-1-2-1.59-2.94-.62-1.03-1.21-2.08-1.89-3.08-.76-1.13-1.55-2.24-2.42-3.28-.96-1.16-1.99-2.26-3.02-3.36-.98-1.03-1.97-2.05-3.03-3.01-.78-.75-1.58-1.49-2.44-2.15-.66-.5-1.34-.97-2.01-1.44l-.02-.6Z"/>
      <path class="cls-1" d="M562.89,51.89c6.3,3.25,8.7,5.77,9.45,9.94,.58,3.22-.37,7.92-1.81,9.02-1.08,.82-1.15,.77-2.75-2.26-1.94-3.67-8.02-10.86-11.88-14.04l-2.74-2.26,4.25-3.22,5.49,2.83h0Z"/>
    </g>
    <g>
      <path class="cls-14" d="M194.69,167.88c2.12-12.25,4.41-12.3,14.17-23.59"/>
      <path class="cls-7" d="M556.95,413.42c-21.97,.54-20.77,.96-43.08-14.88-41.53-29.47-160-114.74-215.55-155.15-71.06-51.69-97.6-71.67-99.79-75.13-1.48-2.34-.96-3.84,4.42-12.8,3.35-5.58,6.21-10.01,6.34-9.85s18.56,15.02,40.95,33c68.56,55.08,157.51,121.12,254.06,188.62,34.59,24.18,63.23,44.39,63.66,44.92s-4.53,1.09-11.02,1.25h0Z"/>
      <path class="cls-9" d="M534.4,413.65l.71-1.66c.32-.76,.72-1.48,1.15-2.18,.45-.64,.87-1.31,1.23-2.01,.33-.63,.62-1.28,.96-1.91,.25-.47,.48-.96,.54-1.5,.03-.43-.25-.66-.55-.92-.46-.37-.94-.72-1.39-1.1-.69-.55-1.33-1.15-2-1.73-.68-.61-1.37-1.18-2.13-1.69-.71-.44-1.44-.83-2.21-1.14-.57-.25-1.26-.39-1.95-.54-.82-.18-1.64-.32-2.47-.41-.78-.09-1.55-.17-2.33-.24-.73-.03-1.47-.11-2.19-.2-.89-.13-1.74-.43-2.6-.68-.95-.28-1.87-.61-2.79-.97-.78-.29-1.53-.66-2.24-1.09-.75-.46-1.44-.99-2.12-1.54-.75-.64-1.46-1.32-2.16-2.01-.73-.67-1.45-1.35-2.17-2.05-.72-.67-1.45-1.33-2.21-1.95-.77-.6-1.5-1.26-2.26-1.87-.67-.58-1.4-1.07-2.13-1.57-.77-.51-1.56-.97-2.33-1.47-.99-.64-1.97-1.28-2.97-1.91-.97-.6-1.93-1.2-2.92-1.77-.96-.56-1.93-1.09-2.92-1.6-1.06-.56-2.14-1.06-3.21-1.59-1.09-.55-2.14-1.18-3.16-1.85-1.23-.84-2.41-1.76-3.56-2.71-1.19-1-2.34-2.04-3.46-3.11-1.12-1.08-2.2-2.2-3.28-3.33-1.02-1.09-2.04-2.19-3.13-3.23-1.13-1.08-2.33-2.09-3.55-3.06-1.16-.92-2.37-1.77-3.6-2.59-1.03-.71-2.09-1.35-3.18-1.96-1.19-.64-2.41-1.22-3.63-1.79-1.35-.62-2.69-1.24-4.04-1.87-1.56-.74-3.11-1.52-4.65-2.31-1.3-.65-2.56-1.38-3.8-2.14-1.1-.67-2.13-1.43-3.1-2.27-1.01-.9-1.95-1.86-2.89-2.83-.95-.99-1.88-2.01-2.8-3.03-.93-1.03-1.84-2.08-2.75-3.13-.95-1.08-1.94-2.11-2.94-3.14-.92-.88-1.89-1.71-2.89-2.49-.97-.73-2.02-1.36-3.07-1.97-1.22-.72-2.46-1.4-3.72-2.05-1.15-.59-2.3-1.2-3.48-1.73-.98-.42-1.95-.85-2.95-1.23-.88-.32-1.76-.64-2.62-1-1.01-.37-1.97-.84-2.93-1.33-1.03-.53-2.05-1.09-3.03-1.71-.91-.58-1.78-1.24-2.63-1.91-.96-.75-1.83-1.61-2.68-2.49-1.16-1.22-2.29-2.48-3.46-3.7-.98-.96-1.95-1.92-2.95-2.86-.86-.79-1.72-1.59-2.59-2.37-.92-.79-1.83-1.58-2.76-2.34-1.04-.87-2.07-1.75-3.13-2.6-1.03-.84-2.04-1.71-3.05-2.57-.97-.84-1.95-1.65-2.94-2.47-1.17-.97-2.38-1.87-3.57-2.82-1.17-.94-2.36-1.86-3.57-2.75-1.03-.81-2.13-1.49-3.28-2.1-1.22-.62-2.53-1.06-3.81-1.54-1.5-.53-2.99-1.08-4.47-1.67-1.31-.56-2.58-1.21-3.88-1.8-1.07-.46-2.1-1-3.11-1.58-.93-.48-1.81-1.03-2.65-1.64-1.03-.75-1.96-1.63-2.88-2.51-.98-.95-1.94-1.93-2.88-2.91-.82-.85-1.62-1.72-2.42-2.59-.96-1.05-1.89-2.14-2.82-3.23-1.12-1.32-2.24-2.65-3.35-3.97-1.03-1.23-2.06-2.47-3.09-3.7-.88-1.1-1.82-2.16-2.8-3.17-.82-.87-1.67-1.71-2.53-2.54-.75-.71-1.57-1.33-2.39-1.95-.92-.65-1.88-1.25-2.88-1.78-1.08-.58-2.15-1.18-3.26-1.71-1.21-.57-2.46-1.06-3.7-1.56-.96-.38-1.95-.71-2.93-1.02-1.02-.32-2.03-.65-3.06-.96-1.02-.31-2.04-.58-3.06-.89-.95-.29-1.9-.61-2.84-.95-1-.34-1.97-.76-2.9-1.25-.82-.48-1.61-1.02-2.38-1.57-.85-.61-1.64-1.28-2.41-1.98-.83-.76-1.62-1.56-2.41-2.36-.75-.77-1.48-1.56-2.21-2.35-.73-.79-1.44-1.6-2.15-2.41-.79-.9-1.55-1.83-2.35-2.72-.74-.8-1.49-1.61-2.22-2.41-.68-.75-1.4-1.47-2.11-2.19-.68-.72-1.38-1.43-2.12-2.11-.68-.59-1.34-1.22-2.02-1.82-.61-.52-1.24-1.01-1.92-1.44-.71-.49-1.5-.8-2.29-1.13-.93-.41-1.88-.78-2.83-1.14-.73-.29-1.49-.51-2.23-.76-.83-.28-1.65-.58-2.48-.87-.9-.31-1.78-.68-2.64-1.09-.8-.42-1.57-.9-2.31-1.41-.84-.56-1.66-1.16-2.45-1.79-.8-.64-1.55-1.33-2.29-2.03-.73-.7-1.44-1.42-2.14-2.15-.68-.71-1.34-1.44-2-2.16-.62-.69-1.24-1.39-1.85-2.1-.72-.85-1.44-1.7-2.19-2.51-.71-.74-1.49-1.4-2.28-2.04-.68-.6-1.42-1.11-2.17-1.62-.67-.44-1.37-.85-2.07-1.24-.63-.36-1.3-.63-1.96-.94-.75-.33-1.51-.66-2.25-1.01-.54-.23-.27-.12-.81-.35l.42,.09c.54,.23,.27,.12,.81,.35,.75,.35,1.5,.67,2.26,1.01,.66,.3,1.33,.58,1.96,.94,.71,.39,1.4,.8,2.07,1.24,.74,.52,1.48,1.03,2.16,1.63,.79,.64,1.57,1.31,2.28,2.05,.75,.82,1.46,1.67,2.19,2.52,.61,.7,1.23,1.4,1.85,2.09,.66,.73,1.32,1.45,2,2.16,.7,.73,1.41,1.45,2.14,2.15,.74,.7,1.5,1.39,2.3,2.03,.79,.63,1.61,1.23,2.45,1.79,.75,.51,1.51,.99,2.32,1.41,.62,.29,1.24,.58,1.85,.79,.83,.29,1.65,.59,2.48,.87,1.01,.34,2.03,.64,3.01,1.06,.95,.37,1.89,.74,2.83,1.14,.79,.33,1.58,.65,2.29,1.14,.67,.43,1.31,.92,1.92,1.44,.68,.6,1.33,1.22,2.02,1.82,.73,.67,1.43,1.38,2.11,2.11,.71,.73,1.43,1.44,2.11,2.19,.74,.81,1.48,1.61,2.22,2.41,.8,.89,1.56,1.82,2.35,2.72,.71,.81,1.42,1.62,2.15,2.41,.73,.79,1.46,1.58,2.21,2.34,.79,.8,1.58,1.59,2.41,2.35,.77,.7,1.57,1.37,2.41,1.98,.77,.55,1.56,1.09,2.38,1.57,.69,.36,1.39,.7,2.12,.95,.93,.35,1.88,.66,2.84,.95,1.02,.31,2.04,.58,3.06,.89,1.02,.31,2.04,.65,3.06,.96,1.25,.4,2.5,.83,3.72,1.32,1.24,.5,2.49,.99,3.7,1.56,1.11,.53,2.18,1.14,3.26,1.71,.99,.54,1.96,1.13,2.88,1.79,.82,.62,1.64,1.25,2.39,1.96,.86,.83,1.71,1.67,2.53,2.54,.98,1.02,1.91,2.08,2.8,3.18,1.03,1.24,2.05,2.47,3.09,3.7,1.11,1.33,2.23,2.65,3.35,3.97,.93,1.09,1.85,2.17,2.82,3.22,.8,.87,1.6,1.73,2.42,2.58,.95,.98,1.9,1.96,2.88,2.91,.92,.88,1.85,1.75,2.88,2.51,.85,.61,1.73,1.16,2.65,1.64,1.01,.58,2.04,1.11,3.11,1.57,1.3,.59,2.57,1.24,3.88,1.79,1.2,.53,2.47,.89,3.69,1.37,1.54,.57,3.11,1.1,4.59,1.84,1.15,.62,2.25,1.3,3.28,2.11,1.21,.89,2.4,1.81,3.57,2.75,1.18,.95,2.4,1.85,3.57,2.82,.98,.82,1.97,1.63,2.94,2.47,1.02,.86,2.02,1.73,3.05,2.57,1.05,.86,2.08,1.74,3.13,2.6,.94,.76,1.85,1.56,2.76,2.34,.87,.78,1.72,1.58,2.59,2.37,1,.94,1.98,1.9,2.95,2.86,1.17,1.22,2.3,2.47,3.46,3.7,.85,.87,1.72,1.73,2.68,2.48,.85,.67,1.72,1.32,2.63,1.9,.98,.62,2,1.18,3.03,1.71,.95,.49,1.92,.95,2.93,1.33,.86,.36,1.75,.67,2.62,1,.99,.38,1.97,.81,2.95,1.23,1.18,.53,2.33,1.14,3.48,1.73,1.26,.65,2.5,1.33,3.72,2.05,1.05,.61,2.1,1.24,3.07,1.97,1,.79,1.97,1.62,2.89,2.5,1,1.02,2,2.06,2.94,3.14,.91,1.05,1.83,2.1,2.75,3.13,.92,1.02,1.85,2.04,2.8,3.03,.94,.97,1.88,1.93,2.89,2.83,.97,.84,2.01,1.6,3.1,2.26,1.24,.76,2.5,1.48,3.8,2.14,1.54,.79,3.08,1.57,4.65,2.3,1.34,.63,2.69,1.26,4.04,1.87,1.22,.57,2.44,1.16,3.63,1.8,1.09,.61,2.16,1.25,3.18,1.96,1.23,.82,2.44,1.67,3.59,2.59,1.23,.97,2.42,1.98,3.55,3.06,1.08,1.04,2.1,2.13,3.13,3.23,1.08,1.13,2.16,2.25,3.28,3.33,1.13,1.07,2.28,2.11,3.47,3.11,1.15,.95,2.33,1.86,3.56,2.7,1.02,.67,2.07,1.29,3.16,1.84,1.07,.53,2.15,1.03,3.21,1.59,.99,.51,1.96,1.05,2.92,1.6,.99,.57,1.95,1.18,2.92,1.77,1,.62,1.98,1.27,2.97,1.91,.77,.5,1.57,.96,2.33,1.47,.73,.49,1.46,.99,2.13,1.57,.76,.62,1.49,1.27,2.26,1.87,.76,.63,1.49,1.29,2.21,1.96,.71,.69,1.44,1.37,2.17,2.05,.7,.69,1.41,1.37,2.16,2.01,.68,.55,1.37,1.08,2.12,1.54,.72,.43,1.46,.8,2.24,1.09,.61,.23,1.34,.46,2.01,.67,.86,.25,1.71,.55,2.6,.69,.73,.09,1.46,.17,2.19,.2,.78,.07,1.55,.15,2.33,.24,.83,.09,1.66,.24,2.48,.41,.93,.2,1.86,.43,2.73,.83,.77,.32,1.5,.71,2.21,1.15,.76,.51,1.45,1.09,2.13,1.69,.66,.58,1.31,1.19,2,1.73,.45,.38,.93,.73,1.39,1.1,.31,.27,.57,.52,.54,.96-.06,.54-.29,1.04-.54,1.52-.34,.63-.63,1.28-.96,1.91-.36,.7-.78,1.37-1.23,2.01-.43,.7-.83,1.42-1.15,2.18-.24,.55-.47,1.1-.71,1.66l-.4-.15h0Z"/>
      <path class="cls-9" d="M240.71,192.31c-.31-.15-.62-.3-.93-.45-.42-.21-.84-.4-1.26-.58-.31-.13-.64-.21-.98-.29-.43-.1-.86-.2-1.3-.29-.44-.1-.88-.18-1.32-.28-.46-.09-.9-.23-1.34-.39-.49-.19-.98-.38-1.45-.61-.41-.22-.8-.47-1.19-.72-.39-.26-.78-.52-1.15-.8-.38-.28-.75-.57-1.12-.87-.36-.29-.7-.6-1.03-.92-.35-.33-.69-.68-1.02-1.04-.33-.35-.65-.71-.97-1.06-.31-.36-.57-.76-.83-1.17-.25-.42-.51-.82-.79-1.22-1.31-1.72-2.67-3.4-4.02-5.09-1.38-1.76-2.81-3.48-4.32-5.14-.98-1.05-2-2.06-3.07-3.02-.76-.64-1.56-1.22-2.38-1.77-.61-.41-1.26-.75-1.93-1.06-.51-.24-1.03-.46-1.55-.66-.54-.2-1.09-.37-1.63-.56-.47-.16-.94-.29-1.41-.45-.42-.13-.85-.26-1.27-.4-.47-.13-.92-.31-1.35-.52-.37-.18-.71-.41-1.04-.65-.22-.16-.43-.34-.64-.51l.21,.05c.21,.18,.42,.35,.64,.51,.33,.24,.67,.47,1.04,.65,.31,.15,.62,.29,.96,.37,.42,.14,.85,.26,1.27,.4,.47,.15,.94,.29,1.41,.45,.54,.19,1.09,.36,1.63,.56,.66,.25,1.31,.5,1.94,.81,.66,.31,1.32,.65,1.93,1.06,.82,.55,1.62,1.14,2.38,1.78,1.07,.95,2.09,1.97,3.07,3.02,1.5,1.66,2.94,3.38,4.32,5.14,1.35,1.69,2.7,3.37,4.02,5.09,.28,.4,.54,.8,.79,1.22,.25,.4,.52,.8,.83,1.16,.32,.36,.64,.71,.97,1.06,.33,.35,.67,.7,1.02,1.03,.34,.32,.68,.63,1.03,.92,.37,.3,.74,.58,1.12,.87,.38,.28,.77,.54,1.15,.8,.39,.25,.78,.51,1.19,.72,.35,.16,.7,.31,1.06,.46,.44,.16,.88,.3,1.33,.39,.44,.1,.88,.18,1.32,.28,.43,.09,.86,.19,1.3,.29,.47,.11,.93,.25,1.37,.44,.43,.18,.85,.38,1.26,.58,.31,.15,.62,.3,.94,.45l-.21-.04h0Z"/>
      <path class="cls-9" d="M375.23,294.97l-2.62,2.06-8.85-6.38c-44.37-31.98-100.86-73.13-125.54-91.43-24.67-18.3-34.4-25.83-38.74-29.98-1.55-1.48-1.85-3-1.04-5.21,.76-2.05,.85-2.12,1.94-1.44,.51,.33,2.22,1.01,3.79,1.52,6.8,2.22,9.16,4.17,16.83,13.93,5.87,7.47,6.17,7.83,7.66,9.05,2.14,1.75,3.62,2.58,5.59,3.13,1.04,.29,3.25,1.15,4.91,1.9,4.82,2.19,7.37,4.15,11.37,8.72,7.26,8.3,10.71,10.91,17.53,13.28,3.75,1.3,6.57,2.45,7.57,3.08,2.46,1.56,5.92,4.89,11.05,10.65,6.42,7.2,8.43,9.21,11.34,11.36,2.34,1.72,4.12,2.48,10.42,4.43,9.9,3.06,15.38,5.82,19.43,9.79,.72,.7,3.98,4.41,7.25,8.24,6.37,7.47,7.33,8.54,10.82,12.05,2.41,2.43,4.39,4.05,6.11,5.02,2.39,1.34,7.27,3.55,10.57,4.8,1.93,.73,4.23,1.66,5.1,2.07,1.46,.69,4.54,2.88,8.62,6.12l1.5,1.19-2.62,2.06h0Z"/>
      <path class="cls-9" d="M538.1,405.98c-.41,.93-1.27,2.61-1.92,3.72l-1.17,2.03-1.34-.58c-2.43-1.06-6.18-3.39-12.58-7.83-7.49-5.2-102.76-73.46-128.88-92.34-10.02-7.24-18.48-13.35-18.81-13.57-.52-.35-.28-.63,1.94-2.2,1.39-.99,2.63-1.79,2.74-1.79,.32,.01,11.48,9.37,14.09,11.82,1.29,1.21,3.96,3.86,5.93,5.87,4.44,4.55,7.4,6.46,15,9.71,10.64,4.55,14.06,7.01,22.02,15.86,5.99,6.66,7.91,7.99,19.94,13.78,3.3,1.59,7.5,3.98,9.32,5.31,3.15,2.29,4.4,3.42,11.61,10.49,4.21,4.12,7.6,6.61,12.67,9.27,7.09,3.72,13.4,7.92,17.73,11.8,8.5,7.61,10.14,8.46,18.66,9.65,5.66,.79,6.64,1.19,10.43,4.28,3.47,2.83,3.45,2.78,2.59,4.72h0Z"/>
      <path class="cls-9" d="M375.21,294.91l-2.41,1.96-2.08-1.46c-1.14-.8-2.35-1.61-2.69-1.79s-.67-.44-.74-.58c-.14-.27-3.59-2.72-4.62-3.29-.33-.18-.66-.45-.74-.59-.14-.27-3.59-2.72-4.62-3.29-.33-.18-.66-.45-.74-.59-.14-.27-3.59-2.72-4.62-3.29-.33-.18-.66-.45-.74-.59-.14-.27-3.59-2.72-4.62-3.29-.33-.18-.66-.45-.74-.59-.14-.27-3.58-2.71-4.61-3.29-.33-.18-.74-.47-.91-.63-1.57-1.49-3.19-2.62-3.45-2.41-.18,.14-.34,.08-.37-.14-.06-.44-4.38-3.79-4.91-3.8-.18,0-.45-.16-.6-.34-.79-.96-4.59-3.67-4.85-3.46-.17,.14-.33,.07-.36-.15-.06-.44-4.38-3.79-4.91-3.8-.18,0-.45-.16-.6-.34-.79-.96-4.59-3.67-4.85-3.46-.17,.14-.33,.04-.37-.22-.07-.56-4.45-3.74-4.95-3.6-.19,.06-.38-.09-.41-.32-.07-.53-4.47-3.69-4.95-3.55-.19,.06-.38-.09-.41-.32-.07-.53-4.47-3.69-4.95-3.55-.19,.06-.38-.09-.41-.32-.07-.5-4.45-3.7-4.9-3.57-.17,.05-.47-.27-.66-.7-.2-.45-.52-.65-.74-.47-.21,.17-.41,.11-.45-.14-.07-.56-5.87-4.81-6.36-4.66-.19,.06-.38-.1-.41-.34-.07-.53-5.82-4.75-6.29-4.61-.18,.05-.48-.25-.68-.68-.2-.45-.52-.65-.74-.47-.21,.17-.42,.1-.45-.17-.08-.6-5.82-4.8-6.34-4.64-.2,.06-.39-.07-.43-.31-.08-.62-7.43-6.01-7.79-5.72-.17,.14-.34,.03-.37-.23-.07-.55-21.01-16.03-21.5-15.89-.17,.05-.48-.26-.67-.69s-.51-.66-.69-.51-.5-.09-.7-.53-.52-.68-.7-.53-.5-.09-.7-.53c-.21-.47-.53-.67-.75-.48-.21,.17-.42,.11-.45-.15-.08-.59-17.37-13.55-17.86-13.4-.2,.06-.39-.08-.42-.31-.07-.51-3.16-2.91-3.99-3.1-.32-.07-.56-.28-.54-.47,.03-.31-2.29-2.18-3.64-2.94-.33-.18-.8-.54-1.05-.79-1.5-1.54-3.6-3.11-3.87-2.89-.17,.14-.34,.04-.38-.23s-1.34-1.59-2.9-2.94c-3.3-2.86-3.71-3.79-2.9-6.47,.53-1.75,.92-2.31,1.29-1.85,.12,.15,2.28,1.1,4.79,2.12,6.88,2.78,7.27,3.11,15.85,13.38,4.42,5.29,8.04,9.34,8.96,10,.85,.62,3.78,2.06,6.51,3.21,6.9,2.9,8.76,4.15,13.25,8.87,5.77,6.06,10.17,10.08,12.57,11.47,1.18,.69,4.51,2.17,7.4,3.29s6.07,2.59,7.07,3.27c1.97,1.33,5.69,5.05,13.19,13.17,7.27,7.87,8.97,9.09,16.31,11.67,18.44,6.49,18.1,6.25,32.56,22.65,10.76,12.2,11.92,13.08,24.08,18.13,6.2,2.58,6.77,2.9,11.75,6.69l3.37,2.56-2.41,1.96h0Z"/>
      <path class="cls-5" d="M572.95,414.39s-.03,2.15-2.01-1.11c-2.3-3.8-9.41-5.72-14.44-9.68-5.61,1.88-15.38-2.67-17.54-.3-.6,.65-.84,4.77-5.58,9.42"/>
      <path class="cls-6" d="M538.57,403.26c.06-.36,.13-.73,.2-1.09,.1-.51,.22-1.02,.38-1.51,.19-.53,.4-1.05,.62-1.57,.19-.47,.45-.91,.7-1.36,.23-.41,.49-.8,.74-1.2,.2-.37,.42-.71,.64-1.07,.2-.34,.42-.66,.66-.98l.12-.16,.2,.08-.12,.16c-.24,.31-.46,.64-.66,.98-.22,.36-.44,.7-.64,1.07-.25,.4-.51,.79-.74,1.2-.25,.44-.51,.88-.7,1.35-.22,.52-.42,1.04-.62,1.57-.16,.5-.28,1-.38,1.51-.07,.36-.14,.72-.2,1.09l-.2-.07h0Z"/>
      <path class="cls-15" d="M555.32,403.78c-1.41,.29-4.71,.06-8.74-.6-4.41-.73-5.31-.79-6.83-.43l-.82,.19,.35-1.39c.19-.76,.53-1.78,.74-2.27,.59-1.31,2.78-4.79,2.97-4.73,.16,.05,11.3,7.9,12.39,8.73,.48,.36,.48,.38-.06,.49Z"/>
      <path class="cls-10" d="M538.7,398.89S223.26,172.1,214.65,161.53l-8.61-10.56"/>
      <path class="cls-8" d="M190.71,164.25l15.83-21.99,17.08,13.21-15.83,21.99-17.08-13.21Z"/>
      <path class="cls-3" d="M192.52,145.04c5.96-7.05,12.04-12.23,17.48-14.89,4.13-2.03,7.67-2.46,9.72-1.18,3.38,2.11,2.75,11.08-3.9,18.98l-.56,.67-1.06-.9c-.58-.5-2.34-1.07-3.37-2.2l-2.67-1.57,.35-.22-.31,.41,3.23,2.59c1.78,1.43,3.2,2.63,3.16,2.69s.72,.65,1.68,1.34,3.85,2.96,6.41,5.06l4.66,3.81-7.85-6.08c-4.32-3.35-8.73-6.75-9.81-7.57l-1.96-1.49,.26-.34c.14-.19,.19-.35,.1-.36s-.65,.56-1.27,1.27-2.15,2.41-3.42,3.79c-1.48,1.59-3.04,3.45-4.32,5.13-2.25,2.93-2.7,3.76-3.58,6.53-.36,1.12-.65,1.74-1.08,2.31-.32,.43-.89,1.25-1.26,1.83l-.67,1.05,.78,.6c1.59,2.24,4.86,2.59,4.69,4.48-1.7,1.1-2.62,2.68-3.63,3.81-1.29,1.44-2.54,2.4-3.91,3.38-3.72,2.66-8.2,3.13-12.97-.34l-.07-.81c-.46-5.39,.34-7.99,1.93-11.38,1.01-2.16,2.77-6.11,3.09-6.15,.32-.04,.73-.68,.54-.83-.12-.09-.04-.36,.28-.88,.53-.88,8.33-11.36,9.32-12.53h0Z"/>
      <path class="cls-1" d="M90.24,52.67c2.09-1.19,4.89-2.59,6.21-3.1,2.32-.9,2.47-.86,4.41,1.03,2.27,2.22,35.96,32.13,57.19,50.76,9.67,8.49,18.63,15.83,28.71,23.51l14.64,11.16-2.09,1.82c-1.15,1-5.27,5.95-9.16,11-4.7,6.1-7.24,9.05-7.58,8.8-.28-.21-12.14-10.58-26.36-23.04-46.72-40.94-70.56-62.19-72.12-64.28-1.18-1.57-1.76-6.21-1.13-9.06,.79-3.63,2.86-6.08,7.29-8.6h0Z"/>
      <g class="cls-16">
        <ellipse class="cls-12" cx="147.47" cy="110.3" rx="2.86" ry="58.26" transform="translate(-31.49 153.72) rotate(-50.43)"/>
      </g>
      <path class="cls-6" d="M189.25,133.33l-1.64,8.75-7.64,4.19,1.64-8.75,7.64-4.19Z"/>
      <path class="cls-6" d="M180.97,126.31l-1.64,8.75-7.64,4.19,1.64-8.75,7.64-4.19Z"/>
      <path class="cls-6" d="M172.82,120.12l-1.64,8.75-7.64,4.19,1.64-8.75,7.64-4.19Z"/>
      <path class="cls-6" d="M165.03,113.45l-1.64,8.75-7.64,4.19,1.64-8.75,7.64-4.19Z"/>
      <path class="cls-6" d="M156.88,107.26l-1.64,8.75-7.64,4.19,1.64-8.75,7.64-4.19Z"/>
      <path class="cls-6" d="M148.73,101.07l-1.64,8.75-7.64,4.19,1.64-8.75,7.64-4.19Z"/>
      <path class="cls-6" d="M141.18,93.08l-1.64,8.75-7.64,4.19,1.64-8.75,7.64-4.19Z"/>
      <path class="cls-6" d="M133.75,85.93l-1.64,8.75-7.64,4.19,1.64-8.75,7.64-4.19Z"/>
      <path class="cls-6" d="M124.78,76.84l-1.64,8.75-7.64,4.19,1.64-8.75,7.64-4.19Z"/>
      <path class="cls-6" d="M116.5,69.82l-1.64,8.75-7.64,4.19,1.64-8.75,7.64-4.19Z"/>
      <path class="cls-6" d="M109.44,62.19l-1.64,8.75-7.64,4.19,1.64-8.75,7.64-4.19Z"/>
      <path class="cls-11" d="M102.93,52.94c-.68,.47-1.36,.94-2.01,1.44-.86,.67-1.66,1.4-2.44,2.15-1.06,.95-2.05,1.98-3.03,3.01-1.03,1.1-2.06,2.2-3.02,3.36-.87,1.05-1.66,2.16-2.42,3.28-.68,1-1.27,2.05-1.89,3.08-.59,.95-1.11,1.94-1.59,2.94-.29,.59-.44,1.22-.54,1.86l-.02-.6c.11-.64,.26-1.27,.56-1.86,.48-1.01,1-2,1.6-2.94,.62-1.03,1.21-2.08,1.89-3.08,.76-1.13,1.55-2.24,2.43-3.28,.96-1.16,2-2.26,3.03-3.36,.98-1.03,1.97-2.05,3.03-3.01,.78-.75,1.59-1.49,2.45-2.15,.66-.5,1.34-.97,2.01-1.45l-.02,.6Z"/>
      <path class="cls-1" d="M92.76,51.89l5.49-2.83,4.25,3.22-2.74,2.26c-3.86,3.18-9.94,10.36-11.88,14.04-1.6,3.03-1.67,3.08-2.75,2.26-1.44-1.09-2.38-5.8-1.81-9.02,.75-4.17,3.15-6.69,9.45-9.94h0Z"/>
    </g>
  </g>
</svg>